<svg width="85" height="59" viewBox="0 0 85 59" fill="none" xmlns="http://www.w3.org/2000/svg">
<g clip-path="url(#clip0_769_73)">
<path d="M1.90988 33.3447C2.74107 34.0056 3.60809 34.3613 4.65268 34.3613C5.8659 34.3613 6.59264 33.8538 6.59264 33.0515C6.59264 32.2493 6.03154 31.7789 4.32288 31.4366C1.45324 30.8501 0.0251308 29.4004 0.0251308 27.2124C0.0251308 25.0006 1.9248 23.3722 4.80041 23.3722C7.41637 23.3722 9.0728 24.6315 9.73686 26.6274C9.91593 27.1752 9.59659 27.5309 9.02206 27.5309H7.32982C6.85975 27.5309 6.64188 27.3017 6.40163 26.8954C6.10317 26.4235 5.62266 26.169 4.97202 26.169C4.14232 26.169 3.45289 26.5887 3.45289 27.2645C3.45289 27.9402 4.07815 28.5356 5.55998 28.8407C8.62064 29.4644 10.0219 30.8635 10.0219 33.0887C10.0219 35.4181 8.07148 37.1611 4.79892 37.1611C3.05296 37.1611 1.59799 36.4169 0.348954 34.9969C0.00423868 34.6174 0.043039 34.2229 0.375816 33.8538L0.769777 33.4073C1.11449 33.0128 1.49651 33.0009 1.91584 33.3447" fill="#131CA2"/>
<path d="M17.9702 23.3722C22.1799 23.3722 25.3047 26.4116 25.3047 30.2667C25.3047 34.1217 22.1799 37.1596 17.9702 37.1596C13.7605 37.1596 10.6357 34.1202 10.6357 30.2667C10.6357 26.4131 13.7694 23.3722 17.9702 23.3722ZM17.9702 34.0696C18.7247 34.0699 19.4624 33.847 20.0898 33.4291C20.7173 33.0111 21.2064 32.417 21.4953 31.7218C21.7842 31.0265 21.8599 30.2615 21.7127 29.5233C21.5656 28.7852 21.2023 28.1072 20.6688 27.575C20.1353 27.0429 19.4555 26.6805 18.7154 26.5338C17.9754 26.387 17.2084 26.4625 16.5113 26.7506C15.8143 27.0388 15.2186 27.5266 14.7996 28.1525C14.3806 28.7783 14.1571 29.5141 14.1574 30.2667C14.1494 30.7683 14.2425 31.2664 14.4312 31.7314C14.62 32.1965 14.9005 32.6189 15.2562 32.9737C15.6119 33.3284 16.0354 33.6082 16.5016 33.7965C16.9679 33.9848 17.4673 34.0777 17.9702 34.0696Z" fill="#131CA2"/>
<path d="M27.0833 18.2831H28.9576C29.4814 18.2831 29.7739 18.5807 29.7739 19.0987V36.049C29.7739 36.5714 29.4754 36.8647 28.9576 36.8647H27.0833C26.5595 36.8647 26.267 36.567 26.267 36.049V19.0987C26.267 18.5763 26.5655 18.2831 27.0833 18.2831Z" fill="#131CA2"/>
<path d="M37.141 23.3722C38.9899 23.3722 40.4837 24.0822 41.5417 25.2536V24.4915C41.5417 23.9691 41.8402 23.6774 42.3565 23.6774H44.1935C44.7173 23.6774 45.0098 23.9751 45.0098 24.4915V36.0477C45.0098 36.5702 44.7113 36.8634 44.1935 36.8634H42.3505C41.8283 36.8634 41.5358 36.5657 41.5358 36.0477V35.2871C40.4777 36.4556 38.984 37.167 37.135 37.167C33.4491 37.167 30.7571 34.1277 30.7571 30.2741C30.7571 26.4206 33.4432 23.3797 37.135 23.3797L37.141 23.3722ZM37.8886 34.0771C39.9271 34.0771 41.5358 32.4249 41.5358 30.2741C41.5358 28.1233 39.9331 26.4622 37.8946 26.4622C35.8562 26.4622 34.2833 28.1278 34.2833 30.2667C34.2833 32.4055 35.8636 34.0696 37.8946 34.0696" fill="#131CA2"/>
<path d="M50.3712 29.8726V36.0481C50.3712 36.5705 50.0728 36.8638 49.555 36.8638H47.6792C47.1569 36.8638 46.8644 36.5661 46.8644 36.0481V24.4979C46.8644 23.9769 47.1628 23.6837 47.6792 23.6837H49.555C50.0787 23.6837 50.3712 23.9814 50.3712 24.4979V25.3001C51.2144 24.1793 52.3858 23.3786 53.9034 23.3786C54.0795 23.376 54.2552 23.3935 54.4272 23.4307C54.8988 23.5185 55.0898 23.901 55.0525 24.3713L54.9361 25.8464C54.8869 26.3941 54.5541 26.598 53.993 26.5072C53.8158 26.4839 53.6374 26.4715 53.4587 26.47C51.774 26.47 50.3712 27.832 50.3712 29.88" fill="#131CA2"/>
<path d="M1.88325 49.6094C2.70848 50.2688 3.574 50.626 4.6171 50.626C5.82584 50.626 6.5496 50.1185 6.5496 49.3192C6.5496 48.5199 5.99148 48.0495 4.28731 47.7072C1.42363 47.1237 0 45.677 0 43.4949C0 41.2891 1.89519 39.6652 4.75737 39.6652C7.36438 39.6652 9.01782 40.92 9.68188 42.9115C9.86095 43.4577 9.5431 43.812 8.97156 43.812H7.2823C6.81074 43.812 6.59586 43.5842 6.35411 43.1779C6.05565 42.709 5.57812 42.456 4.92899 42.456C4.10226 42.456 3.41582 42.8728 3.41582 43.5455C3.41582 44.2436 4.03959 44.8152 5.51396 45.1188C8.56715 45.741 9.96691 47.1357 9.96691 49.3564C9.96691 51.6798 8.02695 53.4168 4.7514 53.4168C3.00843 53.4168 1.55793 52.6726 0.311885 51.2601C-0.0298461 50.8791 0.0134311 50.4861 0.338747 50.1185L0.731216 49.6719C1.07444 49.279 1.45646 49.2656 1.87728 49.6079" fill="#131CA2"/>
<path d="M16.9462 39.6637C18.7907 39.6637 20.2785 40.3752 21.335 41.5406V40.78C21.335 40.2605 21.6335 39.9673 22.1483 39.9673H23.9793C24.5016 39.9673 24.7941 40.265 24.7941 40.78V58.1947C24.7941 58.7141 24.4957 59.0059 23.9793 59.0059H22.1483C21.6275 59.0059 21.335 58.7082 21.335 58.1947V51.5399C20.2785 52.7053 18.7907 53.4183 16.9462 53.4183C13.2693 53.4183 10.5862 50.3834 10.5862 46.5402C10.5862 42.6971 13.2723 39.6637 16.9462 39.6637ZM17.6924 50.3343C19.7278 50.3343 21.332 48.6836 21.332 46.5402C21.332 44.3969 19.7308 42.7462 17.6954 42.7462C15.6599 42.7462 14.0975 44.4073 14.0975 46.5388C14.0975 48.6702 15.6733 50.3372 17.6954 50.3372" fill="#131CA2"/>
<path d="M26.3835 48.1048V40.7802C26.3835 40.2608 26.682 39.969 27.1968 39.969H29.0696C29.5919 39.969 29.8844 40.2667 29.8844 40.7802V47.7342C29.8844 49.1914 31.029 50.3345 32.3765 50.3345C34.0315 50.3345 35.3611 49.041 35.3611 46.9721V40.7802C35.3611 40.2608 35.6595 39.969 36.1744 39.969H38.0442C38.5665 39.969 38.859 40.2667 38.859 40.7802V52.3007C38.859 52.8202 38.5605 53.1134 38.0442 53.1134H36.1758C35.655 53.1134 35.3626 52.8157 35.3626 52.3007V51.6532C34.9067 52.2066 34.3332 52.6521 33.6836 52.9574C33.0341 53.2626 32.3246 53.4202 31.6065 53.4185C28.516 53.4185 26.3835 51.2856 26.3835 48.1018" fill="#131CA2"/>
<path d="M46.2099 39.6637C48.0529 39.6637 49.5437 40.3752 50.5987 41.5406V40.78C50.5987 40.2605 50.8972 39.9673 51.4135 39.9673H53.2445C53.7653 39.9673 54.0578 40.265 54.0578 40.78V52.299C54.0578 52.8199 53.7594 53.1117 53.2445 53.1117H51.4135C50.8912 53.1117 50.5987 52.814 50.5987 52.299V51.5399C49.5437 52.7053 48.0529 53.4183 46.2099 53.4183C42.5345 53.4183 39.8514 50.3834 39.8514 46.5402C39.8514 42.6971 42.5375 39.6637 46.2099 39.6637ZM46.9561 50.3343C48.9901 50.3343 50.5943 48.6836 50.5943 46.5402C50.5943 44.3969 48.9945 42.7462 46.9606 42.7462C44.9266 42.7462 43.3627 44.4073 43.3627 46.5388C43.3627 48.6702 44.937 50.3372 46.9606 50.3372" fill="#131CA2"/>
<path d="M59.4101 46.1476V52.2993C59.4101 52.8203 59.1117 53.112 58.5968 53.112H56.7255C56.2047 53.112 55.9122 52.8143 55.9122 52.2993V40.7803C55.9122 40.2594 56.2107 39.9676 56.7255 39.9676H58.5968C59.1191 39.9676 59.4101 40.2653 59.4101 40.7803V41.5796C60.2503 40.4633 61.4202 39.6655 62.9349 39.6655C63.1093 39.6628 63.2834 39.6793 63.4542 39.7146C63.9272 39.8039 64.1168 40.1849 64.078 40.6538L63.9646 42.1259C63.9138 42.6706 63.5825 42.8701 63.0229 42.7852C62.8484 42.7602 62.6724 42.7473 62.4962 42.7465C60.8173 42.7465 59.4176 44.104 59.4176 46.1461" fill="#131CA2"/>
<path d="M71.0861 50.6349C72.6008 50.6349 73.7722 50.2047 74.8258 49.3786C75.2331 49.0616 75.6271 49.0809 75.9823 49.4292L76.606 50.0514C76.9761 50.419 77.003 50.8388 76.6314 51.2064C75.9032 51.9238 75.0386 52.4886 74.0883 52.8677C73.138 53.2467 72.1213 53.4324 71.0981 53.4138C66.5959 53.4138 63.6068 50.3803 63.6068 46.5372C63.6068 42.6941 66.6854 39.6606 70.7697 39.6606C74.7989 39.6606 77.6775 42.6375 77.6775 46.308C77.6775 46.4747 77.6641 46.6652 77.6521 46.8423C77.5999 47.3365 77.2686 47.5761 76.7732 47.5761H67.1435C67.4494 49.4054 68.9745 50.6349 71.0861 50.6349ZM67.2331 45.0919H74.0736C73.6886 43.5336 72.4471 42.4485 70.7429 42.4485C69.9468 42.4437 69.1713 42.7011 68.5367 43.1806C67.9021 43.6602 67.4439 44.3351 67.2331 45.1009" fill="#131CA2"/>
<path d="M62.8307 5.13901V1.87488C62.8316 1.715 62.7945 1.55718 62.7224 1.41438C62.6503 1.27159 62.5453 1.14789 62.4159 1.05346C62.2866 0.95902 62.1366 0.89654 61.9784 0.87115C61.8201 0.845759 61.658 0.858182 61.5055 0.907397C59.9418 1.42406 58.4581 2.15599 57.0974 3.082C56.9619 3.17552 56.8515 3.3006 56.7755 3.44638C56.6996 3.59216 56.6605 3.75422 56.6616 3.9185V5.13901C56.6616 5.40758 56.7685 5.66518 56.9587 5.85523C57.149 6.04527 57.4071 6.15224 57.6764 6.15264H61.8129C61.9465 6.15283 62.0788 6.12676 62.2023 6.07591C62.3258 6.02505 62.438 5.95042 62.5325 5.85628C62.627 5.76214 62.702 5.65033 62.7532 5.52725C62.8043 5.40418 62.8307 5.27225 62.8307 5.13901Z" fill="#00BDFF"/>
<path d="M70.2214 5.1396V1.14316C70.2198 0.893689 70.1268 0.653401 69.96 0.467534C69.7932 0.281667 69.564 0.163044 69.3156 0.133998C67.8676 -0.044666 66.4031 -0.044666 64.9551 0.133998C64.7069 0.163072 64.4778 0.281751 64.3112 0.467651C64.1447 0.653551 64.052 0.893825 64.0508 1.14316V5.1396C64.0508 5.40817 64.1577 5.66576 64.3479 5.85581C64.5382 6.04586 64.7963 6.15283 65.0656 6.15322H69.2021C69.3358 6.15342 69.4682 6.12735 69.5917 6.07652C69.7153 6.02569 69.8276 5.95108 69.9222 5.85695C70.0169 5.76283 70.092 5.65104 70.1433 5.52795C70.1946 5.40487 70.2212 5.2729 70.2214 5.1396Z" fill="#00BDFF"/>
<path d="M77.6106 5.13901V3.9185C77.6118 3.75422 77.5726 3.59216 77.4967 3.44638C77.4208 3.3006 77.3103 3.17552 77.1749 3.082C75.8143 2.15571 74.3305 1.42375 72.7667 0.907397C72.6142 0.858182 72.4521 0.845759 72.2939 0.87115C72.1356 0.89654 71.9857 0.95902 71.8563 1.05346C71.727 1.14789 71.6219 1.27159 71.5498 1.41438C71.4777 1.55718 71.4406 1.715 71.4416 1.87488V5.13901C71.4414 5.27205 71.4675 5.40383 71.5184 5.5268C71.5693 5.64977 71.644 5.76152 71.7383 5.85566C71.8325 5.94981 71.9444 6.02449 72.0676 6.07545C72.1908 6.12641 72.3229 6.15264 72.4563 6.15264H76.5929C76.7265 6.15283 76.8588 6.12676 76.9823 6.07591C77.1057 6.02505 77.2179 5.95042 77.3125 5.85628C77.407 5.76214 77.482 5.65033 77.5331 5.52725C77.5843 5.40418 77.6106 5.27225 77.6106 5.13901Z" fill="#00BDFF"/>
<path d="M54.4242 7.37097H53.2006C53.0357 7.37 52.873 7.40906 52.7267 7.48478C52.5803 7.56049 52.4546 7.6706 52.3604 7.80559C51.433 9.16362 50.6988 10.6433 50.1787 12.2024C50.13 12.3548 50.1181 12.5165 50.144 12.6743C50.1699 12.8321 50.2328 12.9815 50.3277 13.1104C50.4226 13.2393 50.5467 13.344 50.6899 13.4159C50.8331 13.4878 50.9914 13.5249 51.1517 13.5242H54.4242C54.5577 13.5243 54.69 13.4983 54.8134 13.4474C54.9368 13.3965 55.0489 13.3219 55.1433 13.2277C55.2377 13.1335 55.3125 13.0217 55.3635 12.8987C55.4145 12.7756 55.4407 12.6437 55.4405 12.5105V8.38459C55.4401 8.11588 55.3329 7.85829 55.1424 7.66829C54.9519 7.47828 54.6936 7.37136 54.4242 7.37097Z" fill="#00BDFF"/>
<path d="M57.6778 7.37095H61.8144C62.0839 7.37095 62.3424 7.47774 62.533 7.66783C62.7236 7.85793 62.8307 8.11575 62.8307 8.38457V12.5105C62.8308 12.6437 62.8047 12.7756 62.7537 12.8986C62.7027 13.0217 62.6278 13.1335 62.5334 13.2277C62.439 13.3218 62.3269 13.3965 62.2035 13.4474C62.0802 13.4982 61.9479 13.5243 61.8144 13.5241H57.6778C57.5443 13.5243 57.4121 13.4982 57.2887 13.4474C57.1653 13.3965 57.0532 13.3218 56.9588 13.2277C56.8644 13.1335 56.7895 13.0217 56.7385 12.8986C56.6875 12.7756 56.6614 12.6437 56.6616 12.5105V8.38457C56.662 8.11587 56.7692 7.85828 56.9597 7.66827C57.1502 7.47826 57.4084 7.37135 57.6778 7.37095Z" fill="#00BDFF"/>
<path d="M65.067 7.37095H69.2111C69.4806 7.37095 69.7391 7.47774 69.9297 7.66783C70.1203 7.85793 70.2273 8.11575 70.2273 8.38457V12.5105C70.2275 12.6437 70.2014 12.7756 70.1504 12.8986C70.0994 13.0217 70.0245 13.1335 69.9301 13.2277C69.8357 13.3218 69.7236 13.3965 69.6002 13.4474C69.4768 13.4982 69.3446 13.5243 69.2111 13.5241H65.067C64.9335 13.5243 64.8013 13.4982 64.6779 13.4474C64.5545 13.3965 64.4424 13.3218 64.348 13.2277C64.2536 13.1335 64.1788 13.0217 64.1278 12.8986C64.0768 12.7756 64.0506 12.6437 64.0508 12.5105V8.38457C64.0512 8.11587 64.1584 7.85828 64.3489 7.66827C64.5394 7.47826 64.7976 7.37135 65.067 7.37095Z" fill="#00BDFF"/>
<path d="M54.4247 14.7419H50.418C50.1677 14.7434 49.9266 14.8361 49.74 15.0025C49.5534 15.1689 49.4342 15.3975 49.4047 15.6454C49.2272 17.0892 49.2272 18.5493 49.4047 19.9931C49.4342 20.2409 49.5535 20.4693 49.7401 20.6354C49.9268 20.8016 50.1678 20.8939 50.418 20.8951H54.4247C54.5583 20.8953 54.6905 20.8692 54.8139 20.8183C54.9373 20.7675 55.0494 20.6928 55.1438 20.5986C55.2382 20.5045 55.313 20.3927 55.364 20.2696C55.415 20.1465 55.4412 20.0146 55.441 19.8815V15.7555C55.441 15.4867 55.3339 15.2289 55.1433 15.0388C54.9528 14.8487 54.6943 14.7419 54.4247 14.7419Z" fill="#00BDFF"/>
<path d="M57.6778 14.7419H61.8144C61.9479 14.7417 62.0802 14.7678 62.2035 14.8187C62.3269 14.8695 62.439 14.9442 62.5334 15.0384C62.6278 15.1325 62.7027 15.2443 62.7537 15.3674C62.8047 15.4905 62.8308 15.6224 62.8307 15.7555V19.8815C62.8308 20.0146 62.8047 20.1465 62.7537 20.2696C62.7027 20.3927 62.6278 20.5045 62.5334 20.5986C62.439 20.6928 62.3269 20.7675 62.2035 20.8183C62.0802 20.8692 61.9479 20.8953 61.8144 20.8951H57.6778C57.5443 20.8953 57.4121 20.8692 57.2887 20.8183C57.1653 20.7675 57.0532 20.6928 56.9588 20.5986C56.8644 20.5045 56.7895 20.3927 56.7385 20.2696C56.6875 20.1465 56.6614 20.0146 56.6616 19.8815V15.7555C56.6616 15.4867 56.7687 15.2289 56.9592 15.0388C57.1498 14.8487 57.4083 14.7419 57.6778 14.7419Z" fill="#00BDFF"/>
<path d="M65.067 14.7419H69.2111C69.3446 14.7417 69.4768 14.7678 69.6002 14.8187C69.7236 14.8695 69.8357 14.9442 69.9301 15.0384C70.0245 15.1325 70.0994 15.2443 70.1504 15.3674C70.2014 15.4905 70.2275 15.6224 70.2273 15.7555V19.8815C70.2275 20.0146 70.2014 20.1465 70.1504 20.2696C70.0994 20.3927 70.0245 20.5045 69.9301 20.5986C69.8357 20.6928 69.7236 20.7675 69.6002 20.8183C69.4768 20.8692 69.3446 20.8953 69.2111 20.8951H65.067C64.9335 20.8953 64.8013 20.8692 64.6779 20.8183C64.5545 20.7675 64.4424 20.6928 64.348 20.5986C64.2536 20.5045 64.1788 20.3927 64.1278 20.2696C64.0768 20.1465 64.0506 20.0146 64.0508 19.8815V15.7555C64.0508 15.4867 64.1579 15.2289 64.3485 15.0388C64.539 14.8487 64.7975 14.7419 65.067 14.7419Z" fill="#00BDFF"/>
<path d="M72.4578 14.7419H76.5944C76.728 14.7417 76.8603 14.7678 76.9837 14.8186C77.1072 14.8695 77.2194 14.9441 77.3139 15.0383C77.4085 15.1324 77.4834 15.2442 77.5346 15.3673C77.5858 15.4904 77.6121 15.6223 77.6121 15.7555V19.8815C77.6121 20.0147 77.5858 20.1466 77.5346 20.2697C77.4834 20.3928 77.4085 20.5046 77.3139 20.5987C77.2194 20.6929 77.1072 20.7675 76.9837 20.8184C76.8603 20.8692 76.728 20.8953 76.5944 20.8951H72.4578C72.3243 20.8953 72.192 20.8692 72.0687 20.8183C71.9453 20.7675 71.8332 20.6928 71.7388 20.5986C71.6443 20.5045 71.5695 20.3927 71.5185 20.2696C71.4675 20.1465 71.4414 20.0146 71.4415 19.8815V15.7555C71.4415 15.4867 71.5486 15.2289 71.7392 15.0388C71.9298 14.8487 72.1883 14.7419 72.4578 14.7419Z" fill="#00BDFF"/>
<path d="M79.847 20.8951H83.8523C84.1028 20.8939 84.3443 20.8014 84.5312 20.635C84.7181 20.4686 84.8375 20.2398 84.867 19.9916C85.0445 18.5478 85.0445 17.0877 84.867 15.6439C84.8372 15.396 84.7176 15.1675 84.5307 15.0014C84.3439 14.8353 84.1026 14.743 83.8523 14.7419H79.847C79.5775 14.7419 79.319 14.8487 79.1284 15.0388C78.9378 15.2289 78.8308 15.4867 78.8308 15.7555V19.8815C78.8308 20.1503 78.9378 20.4081 79.1284 20.5982C79.319 20.7883 79.5775 20.8951 79.847 20.8951Z" fill="#00BDFF"/>
<path d="M65.067 22.1113H69.2111C69.3446 22.1111 69.4768 22.1372 69.6002 22.1881C69.7236 22.239 69.8357 22.3136 69.9301 22.4078C70.0245 22.5019 70.0994 22.6138 70.1504 22.7368C70.2014 22.8599 70.2275 22.9918 70.2273 23.125V27.2509C70.2275 27.3841 70.2014 27.516 70.1504 27.639C70.0994 27.7621 70.0245 27.8739 69.9301 27.9681C69.8357 28.0622 69.7236 28.1369 69.6002 28.1878C69.4768 28.2386 69.3446 28.2647 69.2111 28.2645H65.067C64.9335 28.2647 64.8013 28.2386 64.6779 28.1878C64.5545 28.1369 64.4424 28.0622 64.348 27.9681C64.2536 27.8739 64.1788 27.7621 64.1278 27.639C64.0768 27.516 64.0506 27.3841 64.0508 27.2509V23.125C64.0508 22.8561 64.1579 22.5983 64.3485 22.4082C64.539 22.2181 64.7975 22.1113 65.067 22.1113Z" fill="#00BDFF"/>
<path d="M72.4578 22.1113H76.5944C76.728 22.1111 76.8603 22.1372 76.9837 22.1881C77.1072 22.2389 77.2194 22.3136 77.3139 22.4077C77.4085 22.5018 77.4834 22.6136 77.5346 22.7367C77.5858 22.8598 77.6121 22.9917 77.6121 23.125V27.2509C77.6121 27.3841 77.5858 27.5161 77.5346 27.6391C77.4834 27.7622 77.4085 27.874 77.3139 27.9682C77.2194 28.0623 77.1072 28.1369 76.9837 28.1878C76.8603 28.2386 76.728 28.2647 76.5944 28.2645H72.4578C72.3243 28.2647 72.192 28.2386 72.0687 28.1878C71.9453 28.1369 71.8332 28.0622 71.7388 27.9681C71.6443 27.8739 71.5695 27.7621 71.5185 27.639C71.4675 27.516 71.4414 27.3841 71.4415 27.2509V23.125C71.4415 22.8561 71.5486 22.5983 71.7392 22.4082C71.9298 22.2181 72.1883 22.1113 72.4578 22.1113Z" fill="#00BDFF"/>
<path d="M79.847 28.266H81.0707C81.2355 28.267 81.3981 28.2277 81.5442 28.1517C81.6904 28.0757 81.8157 27.9652 81.9093 27.8299C82.8367 26.4719 83.571 24.9922 84.091 23.4331C84.1401 23.2808 84.1523 23.1192 84.1266 22.9614C84.1009 22.8035 84.0381 22.654 83.9433 22.5251C83.8485 22.3961 83.7245 22.2914 83.5813 22.2195C83.4381 22.1476 83.2799 22.1105 83.1196 22.1114H79.847C79.5777 22.1114 79.3195 22.2179 79.1289 22.4077C78.9384 22.5975 78.8312 22.8549 78.8308 23.1235V27.2494C78.8306 27.3827 78.8567 27.5148 78.9077 27.638C78.9586 27.7612 79.0334 27.8733 79.1278 27.9677C79.2222 28.0621 79.3343 28.137 79.4577 28.1882C79.5811 28.2394 79.7134 28.2658 79.847 28.266Z" fill="#00BDFF"/>
<path d="M56.6616 30.4959V31.7179C56.6602 31.8819 56.699 32.0437 56.7747 32.1892C56.8504 32.3348 56.9607 32.4597 57.0959 32.5529C58.4578 33.4783 59.9418 34.2106 61.5055 34.729C61.658 34.7776 61.8197 34.7895 61.9777 34.7639C62.1356 34.7382 62.2852 34.6757 62.4143 34.5813C62.5433 34.487 62.6482 34.3635 62.7203 34.2211C62.7924 34.0786 62.8297 33.9211 62.8292 33.7615V30.4959C62.8294 30.3629 62.8033 30.2311 62.7524 30.1081C62.7015 29.9852 62.6268 29.8734 62.5325 29.7793C62.4383 29.6851 62.3263 29.6104 62.2031 29.5595C62.0799 29.5085 61.9478 29.4823 61.8144 29.4823H57.6779C57.4083 29.4823 57.1498 29.5891 56.9593 29.7792C56.7687 29.9693 56.6616 30.2271 56.6616 30.4959Z" fill="#00BDFF"/>
<path d="M64.0508 30.4959V34.4909C64.0523 34.7407 64.1452 34.9813 64.3119 35.1677C64.4787 35.354 64.708 35.4733 64.9566 35.503C66.4042 35.68 67.868 35.68 69.3156 35.503C69.5641 35.4732 69.7932 35.354 69.9597 35.1676C70.1262 34.9812 70.2188 34.7405 70.2199 34.4909V30.4959C70.2201 30.3627 70.1939 30.2309 70.1429 30.1078C70.0919 29.9847 70.0171 29.8729 69.9227 29.7787C69.8283 29.6846 69.7161 29.6099 69.5928 29.5591C69.4694 29.5082 69.3371 29.4821 69.2036 29.4823H65.067C64.7975 29.4823 64.539 29.5891 64.3485 29.7792C64.1579 29.9693 64.0508 30.2271 64.0508 30.4959Z" fill="#00BDFF"/>
<path d="M71.4416 30.4959V33.7615C71.4409 33.9213 71.4783 34.0789 71.5505 34.2216C71.6227 34.3642 71.7277 34.4877 71.8569 34.5821C71.9862 34.6765 72.136 34.739 72.2941 34.7645C72.4523 34.7901 72.6142 34.7779 72.7667 34.729C74.3301 34.2109 75.8137 33.4785 77.1749 32.5529C77.3101 32.4597 77.4203 32.3348 77.496 32.1892C77.5717 32.0437 77.6106 31.8819 77.6091 31.7179V30.4959C77.6093 30.3629 77.5832 30.2311 77.5323 30.1081C77.4814 29.9852 77.4067 29.8734 77.3124 29.7793C77.2182 29.6851 77.1063 29.6104 76.9831 29.5595C76.8598 29.5085 76.7278 29.4823 76.5944 29.4823H72.4578C72.1883 29.4823 71.9298 29.5891 71.7392 29.7792C71.5486 29.9693 71.4416 30.2271 71.4416 30.4959Z" fill="#00BDFF"/>
</g>
<defs>
<clipPath id="clip0_769_73">
<rect width="85" height="59" fill="white"/>
</clipPath>
</defs>
</svg>
